<?xml version="1.0" encoding="UTF-8"?>
<svg width="1200pt" height="1200pt" version="1.1" viewBox="0 0 1200 1200" xmlns="http://www.w3.org/2000/svg">
 <path d="m600 846.84c65.465 0 128.25-26.008 174.54-72.297 46.289-46.293 72.297-109.08 72.297-174.54s-26.008-128.25-72.297-174.54c-46.293-46.289-109.08-72.297-174.54-72.297s-128.25 26.008-174.54 72.297c-46.289 46.293-72.297 109.08-72.297 174.54 0.09375 65.438 26.133 128.17 72.402 174.44s109 72.309 174.44 72.402zm0-457.68c55.918 0 109.55 22.215 149.09 61.754 39.539 39.539 61.754 93.168 61.754 149.09s-22.215 109.55-61.754 149.09c-39.539 39.539-93.168 61.754-149.09 61.754s-109.55-22.215-149.09-61.754c-39.539-39.539-61.754-93.168-61.754-149.09 0.0625-55.898 22.297-109.49 61.824-149.02s93.117-61.762 149.02-61.824z"/>
 <path d="m600 303.96c4.7734 0 9.3516-1.8984 12.727-5.2734 3.3789-3.375 5.2734-7.9531 5.2734-12.727v-100.92c0-6.4297-3.4297-12.371-9-15.586-5.5703-3.2188-12.43-3.2188-18 0-5.5703 3.2148-9 9.1562-9 15.586v100.92c0 4.7734 1.8945 9.3516 5.2734 12.727 3.375 3.375 7.9531 5.2734 12.727 5.2734z"/>
 <path d="m427.44 337.08c1.5703 2.75 3.8438 5.0273 6.582 6.6094 2.7422 1.582 5.8516 2.4062 9.0156 2.3906 3.1367-0.011719 6.207-0.88281 8.8828-2.5195 4.0234-2.3359 6.9727-6.1602 8.207-10.648 1.2344-4.4883 0.65625-9.2812-1.6094-13.352l-50.52-87.957c-3.2148-5.5742-9.1602-9.0078-15.594-9.0117-6.4336 0-12.383 3.4297-15.602 9-3.2188 5.5703-3.2188 12.438-0.003907 18.012z"/>
 <path d="m231.6 408 87.48 50.398h-0.003906c2.6758 1.6367 5.7461 2.5078 8.8828 2.5234 5.2734-0.085937 10.246-2.4648 13.625-6.5156 3.375-4.0547 4.8203-9.375 3.9531-14.578-0.86328-5.1992-3.9531-9.7695-8.4609-12.508l-87.477-50.398c-5.5117-2.707-12.02-2.4219-17.27 0.76172s-8.5156 8.8203-8.6641 14.957c-0.14844 6.1367 2.8438 11.926 7.9336 15.359z"/>
 <path d="m185.04 618h100.92c6.4297 0 12.371-3.4297 15.586-9 3.2188-5.5703 3.2188-12.43 0-18-3.2148-5.5703-9.1562-9-15.586-9h-100.92c-6.4297 0-12.371 3.4297-15.586 9-3.2188 5.5703-3.2188 12.43 0 18 3.2148 5.5703 9.1562 9 15.586 9z"/>
 <path d="m319.08 741.48-87.477 50.52c-4.6172 2.6562-7.8203 7.2227-8.7461 12.465-0.92969 5.2461 0.51562 10.633 3.9375 14.711 3.4258 4.0781 8.4805 6.4297 13.809 6.4258 3.1602 0.011719 6.2656-0.81641 9-2.4023l87.48-50.52h-0.003906c5.0938-3.4297 8.082-9.2227 7.9336-15.359-0.14844-6.1367-3.4141-11.773-8.6641-14.957-5.25-3.1836-11.758-3.4688-17.27-0.76172z"/>
 <path d="m427.44 862.92-50.52 87.477c-2.2344 4.0742-2.7969 8.8594-1.5625 13.34 1.2305 4.4766 4.1562 8.3047 8.1602 10.66 2.7227 1.6172 5.8359 2.4453 9 2.4023 6.2656 0.0625 12.121-3.1133 15.48-8.4023l50.398-87.48v0.003906c2.707-5.5117 2.4219-12.02-0.76172-17.27-3.1836-5.25-8.8203-8.5156-14.957-8.6641-6.1367-0.14844-11.93 2.8398-15.359 7.9336z"/>
 <path d="m582 914.04v100.92c0 6.4297 3.4297 12.371 9 15.586 5.5703 3.2188 12.43 3.2188 18 0 5.5703-3.2148 9-9.1562 9-15.586v-100.92c0-6.4297-3.4297-12.371-9-15.586-5.5703-3.2188-12.43-3.2188-18 0-5.5703 3.2148-9 9.1562-9 15.586z"/>
 <path d="m748.08 856.44c-4.0234 2.3359-6.9727 6.1602-8.207 10.648-1.2344 4.4883-0.65625 9.2812 1.6094 13.352l50.52 87.957c3.2344 5.5547 9.1719 8.9805 15.602 9 3.1641 0.046874 6.2773-0.78516 9-2.3984 4-2.3594 6.9297-6.1836 8.1602-10.664 1.2305-4.4805 0.67188-9.2617-1.5625-13.336l-50.52-87.48c-2.2812-4.2461-6.1758-7.3906-10.809-8.7227-4.6289-1.3359-9.6016-0.74219-13.793 1.6445z"/>
 <path d="m862.92 772.56 87.48 50.52h-0.003906c2.7344 1.5898 5.8398 2.418 9 2.4023 5.2773-0.054688 10.262-2.418 13.641-6.4688 3.3789-4.0508 4.8086-9.3789 3.918-14.578-0.89453-5.1953-4.0195-9.7422-8.5586-12.434l-87.48-50.398h0.003906c-5.5117-2.707-12.02-2.4219-17.27 0.76172-5.25 3.1836-8.5156 8.8203-8.6641 14.957-0.14844 6.1367 2.8398 11.93 7.9336 15.359z"/>
 <path d="m896.04 600c0 4.7734 1.8984 9.3516 5.2734 12.727 3.375 3.3789 7.9531 5.2734 12.727 5.2734h100.92c6.4297 0 12.371-3.4297 15.586-9 3.2188-5.5703 3.2188-12.43 0-18-3.2148-5.5703-9.1562-9-15.586-9h-100.92c-4.7734 0-9.3516 1.8945-12.727 5.2734-3.375 3.375-5.2734 7.9531-5.2734 12.727z"/>
 <path d="m872.04 461.04c3.1367-0.011718 6.207-0.88281 8.8828-2.5195l87.477-50.52c5.5742-3.2148 9.0078-9.1602 9.0117-15.594 0-6.4336-3.4297-12.383-9-15.602-5.5703-3.2188-12.438-3.2188-18.012-0.003907l-87.48 50.52h0.003906c-4.5078 2.7383-7.5977 7.3086-8.4609 12.508-0.86719 5.2031 0.57812 10.523 3.9531 14.578 3.3789 4.0508 8.3516 6.4297 13.625 6.5156z"/>
 <path d="m748.08 343.56c2.6758 1.6367 5.7461 2.5078 8.8828 2.5195 3.1641 0.015625 6.2734-0.80859 9.0156-2.3906 2.7383-1.582 5.0117-3.8594 6.582-6.6094l50.52-87.48v0.003906c2.707-5.5117 2.4219-12.02-0.76172-17.27s-8.8203-8.5156-14.957-8.6641c-6.1367-0.14844-11.926 2.8438-15.359 7.9336l-50.398 87.48v-0.003906c-2.4297 4.0977-3.1094 8.9961-1.8906 13.602 1.2188 4.6016 4.2344 8.5195 8.3672 10.879z"/>
</svg>
