<?xml version="1.0" encoding="UTF-8"?>
<svg width="1200pt" height="1200pt" version="1.1" viewBox="0 0 1200 1200" xmlns="http://www.w3.org/2000/svg">
 <path d="m605.28 756v-537.36c0-38.328-20.449-73.742-53.641-92.906s-74.09-19.164-107.28 0-53.641 54.578-53.641 92.906v537.36c-31.52 22.695-55.027 54.801-67.148 91.699-12.121 36.902-12.227 76.695-0.30469 113.66 11.922 36.961 35.262 69.195 66.656 92.059 31.398 22.863 69.238 35.18 108.08 35.18s76.68-12.316 108.08-35.18c31.395-22.863 54.734-55.098 66.656-92.059 11.922-36.965 11.816-76.758-0.30469-113.66-12.121-36.898-35.629-69.004-67.148-91.699zm-107.28 296.64c-42.855 0.0625-83.621-18.52-111.68-50.91s-40.648-75.383-34.48-117.79c6.168-42.41 30.477-80.043 66.605-103.1 5.2227-3.4062 8.3477-9.2422 8.2773-15.48v-546.72c0-25.465 13.586-48.996 35.641-61.73s49.227-12.734 71.281 0 35.641 36.266 35.641 61.73v546.24c-0.23828 6.4062 2.9062 12.465 8.2773 15.961 36.129 23.055 60.438 60.688 66.605 103.1 6.168 42.41-6.418 85.402-34.48 117.79s-68.828 50.973-111.68 50.91z"/>
 <path d="m515.04 834.6v-594.6c0-6.4297-3.4297-12.375-9-15.59-5.5664-3.2148-12.43-3.2148-18 0-5.5664 3.2148-9 9.1602-9 15.59v595.08c-23.48 5.9062-42.57 22.953-51.086 45.621-8.5156 22.664-5.3672 48.066 8.418 67.973 13.785 19.902 36.457 31.781 60.668 31.781 24.215 0 46.887-11.879 60.672-31.781 13.785-19.906 16.93-45.309 8.4141-67.973-8.5117-22.668-27.605-39.715-51.086-45.621zm-17.039 109.56c-10.07 0.03125-19.742-3.9453-26.875-11.051-7.1367-7.1055-11.152-16.758-11.164-26.828-0.011719-10.07 3.9844-19.734 11.105-26.855 7.1211-7.1211 16.781-11.117 26.855-11.105 10.07 0.011719 19.723 4.0273 26.828 11.164s11.082 16.805 11.051 26.875c-0.03125 10.016-4.0234 19.613-11.105 26.695-7.082 7.082-16.68 11.074-26.695 11.105z"/>
 <path d="m867.6 222.24h-172.8c-6.4297 0-12.375 3.4336-15.59 9-3.2148 5.5703-3.2148 12.434 0 18 3.2148 5.5703 9.1602 9 15.59 9h172.8c6.4297 0 12.371-3.4297 15.586-9 3.2148-5.5664 3.2148-12.43 0-18-3.2148-5.5664-9.1562-9-15.586-9z"/>
 <path d="m867.6 675.84h-172.8c-6.4297 0-12.375 3.4297-15.59 9-3.2148 5.5703-3.2148 12.43 0 18 3.2148 5.5703 9.1602 9 15.59 9h172.8c6.4297 0 12.371-3.4297 15.586-9 3.2148-5.5703 3.2148-12.43 0-18-3.2148-5.5703-9.1562-9-15.586-9z"/>
 <path d="m694.8 598.44h100.8c6.4297 0 12.371-3.4336 15.586-9 3.2148-5.5703 3.2148-12.434 0-18-3.2148-5.5703-9.1562-9-15.586-9h-100.8c-6.4297 0-12.375 3.4297-15.59 9-3.2148 5.5664-3.2148 12.43 0 18 3.2148 5.5664 9.1602 9 15.59 9z"/>
 <path d="m867.6 449.04h-172.8c-6.4297 0-12.375 3.4336-15.59 9-3.2148 5.5703-3.2148 12.434 0 18 3.2148 5.5703 9.1602 9 15.59 9h172.8c6.4297 0 12.371-3.4297 15.586-9 3.2148-5.5664 3.2148-12.43 0-18-3.2148-5.5664-9.1562-9-15.586-9z"/>
 <path d="m694.8 372h100.8c6.4297 0 12.371-3.4297 15.586-9s3.2148-12.43 0-18-9.1562-9-15.586-9h-100.8c-6.4297 0-12.375 3.4297-15.59 9-3.2148 5.5703-3.2148 12.43 0 18 3.2148 5.5703 9.1602 9 15.59 9z"/>
</svg>
