<?xml version="1.0" encoding="UTF-8"?>
<svg width="1200pt" height="1200pt" version="1.1" viewBox="0 0 1200 1200" xmlns="http://www.w3.org/2000/svg">
 <path d="m276 729.12h648c45.469-1.1953 88.672-20.094 120.41-52.672 31.738-32.582 49.5-76.266 49.5-121.75 0-45.48-17.762-89.168-49.5-121.75-31.734-32.582-74.938-51.48-120.41-52.672h-10.199c-8.875-35.121-27.051-67.199-52.617-92.859s-57.582-43.953-92.668-52.953c-35.09-9-71.953-8.375-106.71 1.8125-26.176-37.453-63.605-65.59-106.86-80.324-43.25-14.73-90.074-15.297-133.67-1.6133-43.598 13.684-81.695 40.906-108.77 77.715-27.07 36.809-41.707 81.289-41.785 126.98 0 7.0938 0.36328 14.184 1.082 21.242-45.543 1.6094-88.648 20.973-120.1 53.949-31.449 32.98-48.75 76.953-48.203 122.52 0.55078 45.57 18.906 89.113 51.141 121.32 32.234 32.211 75.797 50.531 121.36 51.047zm0-312.84h16.441c5.3945-0.003906 10.504-2.4258 13.918-6.6016 3.4023-4.2031 4.7656-9.6953 3.7188-15-2.4258-11.844-3.6328-23.906-3.5977-36-0.011719-39.102 12.789-77.129 36.441-108.27 23.652-31.137 56.855-53.668 94.527-64.148s77.738-8.3281 114.07 6.1211c36.332 14.453 66.934 40.406 87.117 73.898 2.168 3.5938 5.5273 6.3203 9.4961 7.6992 3.9648 1.3828 8.2891 1.332 12.223-0.14062 30.527-11.348 63.727-13.434 95.434-5.9961 31.711 7.4375 60.52 24.066 82.82 47.801 22.301 23.738 37.102 53.527 42.547 85.637 0.73047 4.1836 2.9102 7.9805 6.1562 10.723 3.2461 2.7422 7.3555 4.2539 11.605 4.2773h25.078c48.484 1.4258 92.688 28.117 116.52 70.359 23.84 42.242 23.84 93.879 0 136.12-23.836 42.238-68.039 68.93-116.52 70.359h-648c-48.484-1.4297-92.688-28.121-116.52-70.359-23.84-42.242-23.84-93.879 0-136.12 23.836-42.242 68.039-68.934 116.52-70.359z"/>
 <path d="m308.88 799.32-72.719 208.68c-1.5664 4.5195-1.2695 9.4766 0.82422 13.777 2.0938 4.3008 5.8125 7.5898 10.336 9.1445 1.8789 0.70312 3.8711 1.0703 5.8789 1.0781 3.7305-0.003906 7.3672-1.1562 10.418-3.3047 3.0508-2.1484 5.3633-5.1836 6.6211-8.6953l72.602-208.8c2.1445-6.0664 0.88672-12.816-3.293-17.703-4.1836-4.8906-10.656-7.1797-16.98-6-6.3242 1.1758-11.543 5.6367-13.688 11.703z"/>
 <path d="m445.92 823.32-72.602 208.68c-1.5547 4.4414-1.3047 9.3164 0.69141 13.578 1.9961 4.2617 5.582 7.5703 9.9883 9.2227 1.9219 0.70312 3.9531 1.0703 6 1.0781 3.7188 0.007813 7.3438-1.1445 10.379-3.293 3.0312-2.1523 5.3203-5.1953 6.543-8.707l73.078-208.68c2.1445-6.0859 0.875-12.855-3.3242-17.758-4.1992-4.8984-10.695-7.1875-17.039-6s-11.574 5.6719-13.715 11.758z"/>
 <path d="m583.08 799.32-72.598 208.68c-1.6055 4.5039-1.3438 9.4609 0.73047 13.766 2.0742 4.3086 5.7891 7.6055 10.309 9.1562 2.0703 0.77734 4.2695 1.1445 6.4805 1.0781 3.7344 0.015625 7.3789-1.1328 10.434-3.2812 3.0547-2.1523 5.3633-5.1992 6.6055-8.7188l72-208.8c2.1445-6.0664 0.89063-12.816-3.293-17.703-4.1836-4.8906-10.656-7.1797-16.98-6-6.3242 1.1758-11.543 5.6367-13.688 11.703z"/>
 <path d="m857.4 799.32-72.719 208.68c-1.5664 4.5195-1.2695 9.4766 0.82422 13.777 2.0938 4.3008 5.8125 7.5898 10.336 9.1445 1.8789 0.70312 3.8711 1.0703 5.8789 1.0781 3.7305-0.003906 7.3711-1.1562 10.418-3.3047 3.0508-2.1484 5.3633-5.1836 6.625-8.6953l72-208.56c2.1406-6.0664 0.88672-12.816-3.2969-17.707-4.1797-4.8906-10.652-7.1758-16.98-6-6.3242 1.1758-11.539 5.6406-13.684 11.707z"/>
 <path d="m720 823.32-72 208.68c-1.5664 4.5195-1.2695 9.4766 0.82422 13.777 2.0938 4.3008 5.8125 7.5898 10.336 9.1445 1.8789 0.70312 3.8711 1.0703 5.8789 1.0781 3.7305-0.003906 7.3711-1.1562 10.418-3.3047 3.0508-2.1484 5.3633-5.1836 6.6211-8.6953l72.121-208.8c2.1445-6.0664 0.89062-12.816-3.293-17.703-4.1836-4.8906-10.656-7.1797-16.98-6-6.3242 1.1758-11.543 5.6367-13.688 11.703z"/>
</svg>
