<?xml version="1.0" encoding="UTF-8"?>
<svg width="1200pt" height="1200pt" version="1.1" viewBox="0 0 1200 1200" xmlns="http://www.w3.org/2000/svg">
 <path d="m157.44 476.52c0 4.7734 1.8945 9.3516 5.2695 12.727 3.375 3.3789 7.957 5.2734 12.73 5.2734h415.32c35.035 0.023438 69.289-10.344 98.434-29.793 29.145-19.445 51.863-47.102 65.289-79.461 13.422-32.363 16.949-67.98 10.125-102.35-6.8203-34.363-23.68-65.938-48.445-90.719-24.766-24.781-56.324-41.664-90.684-48.508-34.363-6.8438-69.98-3.3438-102.36 10.059-32.371 13.402-60.039 36.105-79.508 65.234-19.465 29.129-29.855 63.379-29.855 98.414 0 6.4336 3.4297 12.375 9 15.59 5.5664 3.2148 12.43 3.2148 18 0 5.5664-3.2148 9-9.1562 9-15.59 0-37.434 14.871-73.332 41.344-99.801 26.477-26.465 62.379-41.328 99.816-41.316 37.434 0.007812 73.328 14.895 99.789 41.375 26.457 26.48 41.309 62.391 41.289 99.824-0.019531 37.434-14.914 73.324-41.402 99.777-26.492 26.449-62.402 41.293-99.836 41.262h-415.32c-4.7734 0-9.3555 1.8984-12.73 5.2734s-5.2695 7.9531-5.2695 12.727z"/>
 <path d="m1116 420c0-56.035-29.895-107.81-78.422-135.83-48.523-28.016-108.31-28.016-156.84 0-48.523 28.016-78.418 79.793-78.418 135.83 0 6.4297 3.4297 12.375 9 15.59 5.5703 3.2148 12.43 3.2148 18 0 5.5703-3.2148 9-9.1602 9-15.59 0-32.043 12.727-62.773 35.379-85.434 22.652-22.66 53.379-35.395 85.422-35.406 32.039-0.011718 62.773 12.703 85.441 35.352 22.672 22.645 35.418 53.367 35.438 85.41 0.019531 32.039-12.684 62.777-35.324 85.453-22.637 22.676-53.355 35.434-85.395 35.465h-840.48c-6.4297 0-12.375 3.4297-15.59 9-3.2148 5.5703-3.2148 12.43 0 18 3.2148 5.5703 9.1602 9 15.59 9h840c41.648 0.0625 81.617-16.43 111.1-45.844 29.484-29.418 46.07-69.348 46.102-111z"/>
 <path d="m998.4 882.6c-0.0625-46.957-18.742-91.973-51.945-125.18-33.203-33.199-78.219-51.883-125.17-51.945h-549.84c-6.4336 0-12.375 3.4297-15.59 9-3.2148 5.5703-3.2148 12.43 0 18 3.2148 5.5703 9.1562 9 15.59 9h549.84c37.426 0 73.32 14.867 99.785 41.332s41.332 62.359 41.332 99.789c0 37.426-14.867 73.32-41.332 99.785-26.465 26.465-62.359 41.332-99.785 41.332-37.43 0-73.324-14.867-99.789-41.332-26.465-26.465-41.332-62.359-41.332-99.785 0-6.4336-3.4297-12.375-9-15.59-5.5703-3.2148-12.43-3.2148-18 0-5.5703 3.2148-9 9.1562-9 15.59 0 46.973 18.66 92.023 51.879 125.24 33.215 33.215 78.266 51.875 125.24 51.875 46.973 0 92.023-18.66 125.24-51.875 33.215-33.219 51.875-78.27 51.875-125.24z"/>
 <path d="m101.88 659.16h549.72c6.4297 0 12.371-3.4297 15.586-9 3.2148-5.5703 3.2148-12.43 0-18-3.2148-5.5703-9.1562-9-15.586-9h-549.72c-6.4297 0-12.371 3.4297-15.586 9-3.2188 5.5703-3.2188 12.43 0 18 3.2148 5.5703 9.1562 9 15.586 9z"/>
</svg>
