<?xml version="1.0" encoding="UTF-8"?>
<svg width="1200pt" height="1200pt" version="1.1" viewBox="0 0 1200 1200" xmlns="http://www.w3.org/2000/svg">
 <path d="m925.68 374.16h-10.32c-8.8984-35.312-27.145-67.582-52.816-93.41s-57.828-44.27-93.086-53.383c-35.262-9.1133-72.324-8.5625-107.3 1.5938-27.324-39.348-66.953-68.492-112.65-82.855-45.699-14.363-94.875-13.129-139.8 3.5117-44.922 16.641-83.035 47.742-108.35 88.41-25.312 40.672-36.387 88.602-31.484 136.25-30.773 0.38672-60.906 8.8711-87.363 24.598-26.457 15.723-48.309 38.137-63.355 64.984-15.051 26.848-22.77 57.18-22.379 87.957 0.58594 46.496 19.625 90.855 52.918 123.32 33.297 32.461 78.121 50.367 124.62 49.781h64.922-0.003907c6.4336 0 12.375-3.4336 15.59-9 3.2148-5.5703 3.2148-12.434 0-18-3.2148-5.5703-9.1562-9-15.59-9h-64.918c-48.824-1.4336-93.336-28.309-117.34-70.848-24.008-42.535-24.008-94.531 0-137.07 24.008-42.535 68.52-69.41 117.34-70.844h16.441c5.4023 0.03125 10.523-2.3984 13.918-6.6016 3.4609-4.125 4.832-9.6094 3.7188-14.879-8.6914-41.688-2.3203-85.109 17.98-122.54 20.297-37.438 53.215-66.461 92.895-81.922 39.68-15.457 83.559-16.344 123.83-2.5078 40.273 13.84 74.336 41.512 96.133 78.094 2.1484 3.5859 5.4883 6.3047 9.4336 7.6875 3.9453 1.3828 8.25 1.3359 12.168-0.12891 30.672-11.391 64.023-13.496 95.887-6.0508 31.863 7.4453 60.824 24.109 83.273 47.914 22.453 23.805 37.395 53.695 42.961 85.938 0.70703 4.1953 2.8828 8.0039 6.1328 10.75s7.3711 4.2539 11.625 4.25h24.961c48.824 1.4336 93.336 28.309 117.34 70.844 24.008 42.539 24.008 94.535 0 137.07-24.008 42.539-68.52 69.414-117.34 70.848h-100.44c-6.4297 0-12.371 3.4297-15.586 9-3.2148 5.5664-3.2148 12.43 0 18 3.2148 5.5664 9.1562 9 15.586 9h100.44c45.719-1.1992 89.164-20.199 121.08-52.961 31.914-32.758 49.773-76.688 49.773-122.42 0-45.734-17.859-89.66-49.773-122.42-31.914-32.758-75.359-51.762-121.08-52.957z"/>
 <path d="m340.32 607.32c1.582 2.7383 3.8555 5.0117 6.5938 6.5898 2.7383 1.582 5.8438 2.4102 9.0078 2.4102 3.1602 0.015626 6.2656-0.8125 9-2.3984l37.922-21.961-0.003906 44.039c0 6.4297 3.4297 12.375 9 15.59 5.5703 3.2148 12.43 3.2148 18 0 5.5703-3.2148 9-9.1602 9-15.59v-44.039l38.039 21.961c2.7305 1.5938 5.8398 2.4258 9 2.3984 5.3281 0.003907 10.383-2.3477 13.805-6.4258 3.4258-4.0781 4.8672-9.4648 3.9414-14.707-0.92578-5.2461-4.1289-9.8125-8.7461-12.469l-38.039-21.84 38.039-21.961v0.003906c5.5742-3.2188 9.0078-9.1602 9.0117-15.598 0-6.4336-3.4297-12.379-9-15.598s-12.438-3.2227-18.012-0.007812l-38.039 21.961v-43.918c0-6.4336-3.4297-12.375-9-15.59-5.5703-3.2148-12.43-3.2148-18 0-5.5703 3.2148-9 9.1562-9 15.59v43.922l-37.922-21.961 0.003906-0.003906c-5.5742-3.2148-12.441-3.2109-18.012 0.007812-5.5703 3.2188-9.0039 9.1641-9 15.598 0 6.4375 3.4375 12.379 9.0117 15.598l37.922 21.961-37.922 21.84v-0.003906c-4.1172 2.4102-7.1172 6.3398-8.3516 10.945-1.2383 4.6055-0.60937 9.5117 1.75 13.656z"/>
 <path d="m270.48 1016.8c3.2344 5.5547 9.1719 8.9766 15.598 9 3.1641 0.042969 6.2812-0.78906 9-2.4023l38.039-21.961v43.922h0.003906c0 6.4297 3.4297 12.371 9 15.59 5.5664 3.2148 12.43 3.2148 18 0 5.5664-3.2188 9-9.1602 9-15.59v-43.922l37.922 21.961h-0.003907c5.5742 3.2148 12.441 3.2148 18.012-0.003906 5.5703-3.2188 9-9.168 9-15.602-0.003906-6.4336-3.4375-12.379-9.0117-15.594l-37.922-21.961 37.922-22.199c5.5742-3.2148 9.0078-9.1602 9.0117-15.594 0-6.4336-3.4297-12.383-9-15.602-5.5703-3.2188-12.438-3.2188-18.012-0.003907l-37.922 21.961 0.003906-43.562c0-6.4297-3.4336-12.371-9-15.586-5.5703-3.2188-12.434-3.2188-18 0-5.5703 3.2148-9 9.1562-9 15.586v43.922l-38.039-21.961h-0.003906c-5.5703-3.2148-12.438-3.2148-18.008 0.003906-5.5703 3.2188-9.0039 9.168-9 15.602 0 6.4336 3.4375 12.379 9.0078 15.594l38.039 21.84-38.039 21.961c-4.1367 2.3867-7.1602 6.3164-8.3984 10.934-1.2383 4.6133-0.58984 9.5312 1.8008 13.668z"/>
 <path d="m585.48 678.12c1.5703 2.7461 3.8438 5.0234 6.582 6.6055 2.7422 1.582 5.8516 2.4062 9.0156 2.3945 3.125 0.027344 6.1992-0.80078 8.8828-2.4023l38.039-21.957v43.922-0.003906c0 6.4297 3.4297 12.375 9 15.59 5.5703 3.2148 12.43 3.2148 18 0 5.5703-3.2148 9-9.1602 9-15.59v-43.918l38.039 21.961v-0.003906c2.7227 1.6172 5.8359 2.4453 9 2.4023 5.3281 0.003906 10.383-2.3477 13.805-6.4258 3.4258-4.0781 4.8672-9.4648 3.9414-14.711-0.92578-5.2422-4.1289-9.8086-8.7461-12.465l-38.039-21.84 38.039-21.961c5.5742-3.2148 9.0078-9.1602 9.0117-15.594 0-6.4336-3.4297-12.379-9-15.598-5.5703-3.2188-12.438-3.2227-18.012-0.007813l-38.039 21.48v-43.441c0-6.4297-3.4297-12.371-9-15.586s-12.43-3.2148-18 0-9 9.1562-9 15.586v43.441l-38.039-21.961c-5.5742-3.2148-12.441-3.2109-18.012 0.007813-5.5703 3.2188-9 9.1641-9 15.598 0.003906 6.4375 3.4375 12.379 9.0117 15.594l38.039 21.961-38.039 21.84c-4.2539 2.4062-7.3438 6.4375-8.5664 11.164-1.2227 4.7305-0.46875 9.7539 2.0859 13.918z"/>
 <path d="m747.84 821.52c-4.7734 0-9.3516 1.8984-12.727 5.2734s-5.2734 7.9531-5.2734 12.727v43.922l-38.039-21.961c-5.5742-3.2148-12.441-3.2148-18.012 0.003906-5.5703 3.2188-9 9.168-9 15.602 0.003907 6.4336 3.4375 12.379 9.0117 15.594l38.039 21.961-38.039 21.359c-4.6172 2.6562-7.8203 7.2227-8.7461 12.465-0.92578 5.2461 0.51562 10.633 3.9414 14.711 3.4219 4.0781 8.4766 6.4297 13.805 6.4258 3.1602 0.023438 6.2695-0.80469 9-2.4023l38.039-21.961v43.922c0 6.4297 3.4297 12.371 9 15.59 5.5703 3.2148 12.43 3.2148 18 0 5.5703-3.2188 9-9.1602 9-15.59v-43.441l38.16 21.961c2.7344 1.5859 5.8398 2.4141 9 2.3984 5.3242 0.007813 10.379-2.3438 13.805-6.4219 3.4258-4.082 4.8672-9.4648 3.9414-14.711-0.92969-5.2422-4.1289-9.8086-8.7461-12.465l-37.922-21.84 37.922-21.961c5.5742-3.2148 9.0078-9.1602 9.0117-15.594 0-6.4336-3.4297-12.383-9-15.602-5.5742-3.2188-12.438-3.2188-18.012-0.003906l-37.922 21.961v-43.441c0.13281-4.8984-1.7383-9.6367-5.1797-13.125-3.4453-3.4883-8.1602-5.4219-13.059-5.3555z"/>
 <path d="m526.92 709.92c-4.7773 0-9.3555 1.8945-12.73 5.2695s-5.2695 7.9531-5.2695 12.73v43.801l-37.922-21.961c-5.5742-3.2188-12.438-3.2148-18.012 0.003906-5.5703 3.2188-9 9.1641-9 15.602 0.003907 6.4336 3.4375 12.379 9.0117 15.594l37.922 21.961-37.922 21.961v-0.003906c-4.4766 2.1992-7.8398 6.1562-9.2891 10.93-1.4453 4.7734-0.84766 9.9336 1.6484 14.246 2.5 4.3164 6.6797 7.4023 11.539 8.5234 4.8594 1.1172 9.9648 0.17188 14.102-2.6172l37.922-21.84v43.801c0 6.4297 3.4297 12.371 9 15.586 5.5664 3.2148 12.43 3.2148 18 0 5.5664-3.2148 9-9.1562 9-15.586v-43.801l38.039 21.84c2.7188 1.6328 5.8281 2.5039 9 2.5195 5.3242 0.003906 10.379-2.3477 13.805-6.4258 3.4258-4.0781 4.8672-9.4648 3.9375-14.707-0.92578-5.2461-4.1289-9.8125-8.7422-12.469l-38.039-21.961 38.039-21.961v0.003907c5.5742-3.2148 9.0078-9.1602 9.0078-15.594 0.003906-6.4375-3.4258-12.383-9-15.602-5.5703-3.2188-12.434-3.2227-18.008-0.003906l-38.039 21.961v-43.801c0-4.7773-1.8984-9.3555-5.2734-12.73s-7.9531-5.2695-12.727-5.2695z"/>
</svg>
