<?xml version="1.0" encoding="UTF-8"?>
<svg width="1200pt" height="1200pt" version="1.1" viewBox="0 0 1200 1200" xmlns="http://www.w3.org/2000/svg">
 <path d="m780.72 882.72c26.062-0.023438 51.656-6.957 74.168-20.09 22.512-13.133 41.141-31.996 53.992-54.668h46.801c51.594-0.43359 99.215-27.777 125.6-72.117 26.387-44.336 27.703-99.234 3.4766-144.79-24.227-45.555-70.48-75.148-121.99-78.059v-14.52c-0.066407-48.039-19.176-94.09-53.145-128.06s-80.02-53.078-128.06-53.141c-28.789-0.14062-57.191 6.6602-82.797 19.816-25.609 13.16-47.672 32.293-64.32 55.781-22.043-6.0703-45.078-7.668-67.746-4.7031-22.672 2.9688-44.52 10.445-64.254 21.984-0.86719 0.46094-1.6719 1.0234-2.4023 1.6797-37.02-18.816-79.363-24.383-119.99-15.773s-77.074 30.879-103.28 63.094c-26.203 32.215-40.578 72.434-40.734 113.96 0 4.9219 0 9.7188 0.60156 14.641-51.512 2.9062-97.77 32.504-122 78.055-24.227 45.555-22.906 100.45 3.4766 144.79 26.387 44.336 74.008 71.68 125.6 72.113zm-144.72-451.68c3.9375 1.4492 8.2539 1.4883 12.215 0.10938 3.9609-1.3789 7.3203-4.0898 9.5039-7.668 21.965-36.512 58.863-61.52 100.91-68.395 42.051-6.875 84.992 5.082 117.44 32.695 32.445 27.613 51.113 68.094 51.051 110.7-0.0625 9.668-1.0273 19.309-2.8828 28.801-1.0781 5.2969 0.27734 10.797 3.6953 14.984 3.4219 4.1875 8.5391 6.6172 13.945 6.6133h13.562c38.977 1.2812 74.461 22.812 93.594 56.801 19.129 33.988 19.129 75.492 0 109.48-19.133 33.988-54.617 55.52-93.594 56.801h-31.441c3.2227-12.016 4.8789-24.398 4.9219-36.84-0.19141-39.148-15.902-76.621-43.684-104.2-27.785-27.578-65.371-43.016-104.52-42.918h-6c-9.4258-36.34-30.668-68.516-60.391-91.457-29.719-22.941-66.223-35.348-103.77-35.262-15.414-0.03125-30.758 2.0664-45.598 6.2383-8.7656-12.25-19.047-23.336-30.602-33 32.145-14.312 68.594-15.562 101.64-3.4805zm-503.16 304.08c0.16016-29.484 11.965-57.711 32.848-78.527s49.148-32.531 78.633-32.594h13.559c5.4297 0 10.578-2.4219 14.043-6.6016 3.3516-4.1758 4.6719-9.6289 3.5977-14.879-1.8555-9.5273-2.8203-19.211-2.8789-28.918 0.0625-42.543 18.777-82.914 51.203-110.45 32.422-27.543 75.293-39.477 117.29-32.652 41.988 6.8203 78.875 31.715 100.91 68.105 2.1875 3.5781 5.5469 6.2891 9.5078 7.6641 3.9609 1.3789 8.2773 1.3438 12.215-0.10547 14.977-5.5469 30.824-8.3906 46.797-8.3984 31.621-0.125 62.258 10.992 86.438 31.371 24.176 20.375 40.328 48.684 45.562 79.867 0.68359 4.1875 2.832 7.9922 6.0664 10.742 3.2305 2.7461 7.332 4.2578 11.574 4.2578h20.52c39.871 0 76.715 21.27 96.648 55.801 19.938 34.527 19.938 77.07 0 111.6-19.934 34.531-56.777 55.801-96.648 55.801h-536.4c-29.652-0.0625-58.062-11.91-78.969-32.934-20.91-21.023-32.605-49.496-32.512-79.145z"/>
</svg>
