<?xml version="1.0" encoding="UTF-8"?>
<svg width="1200pt" height="1200pt" version="1.1" viewBox="0 0 1200 1200" xmlns="http://www.w3.org/2000/svg">
 <path d="m577.92 423.48c0-48.441-19.246-94.895-53.496-129.14-34.25-34.254-80.707-53.496-129.14-53.496-48.441 0-94.895 19.242-129.15 53.496-34.25 34.25-53.492 80.703-53.492 129.14 0 48.438 19.242 94.895 53.492 129.14 34.254 34.254 80.707 53.496 129.15 53.496 48.43-0.03125 94.863-19.285 129.11-53.531 34.246-34.242 53.496-80.68 53.531-129.11zm-182.64 146.64c-38.895 0-76.191-15.449-103.69-42.949-27.5-27.504-42.949-64.801-42.949-103.69s15.449-76.191 42.949-103.69 64.797-42.949 103.69-42.949c38.891 0 76.188 15.449 103.69 42.949s42.953 64.801 42.953 103.69c-0.035156 38.883-15.492 76.16-42.988 103.66-27.492 27.492-64.773 42.953-103.65 42.984z"/>
 <path d="m395.28 216c4.7734 0 9.3516-1.8945 12.727-5.2734 3.375-3.375 5.2734-7.9531 5.2734-12.727v-73.199c0-6.4297-3.4336-12.375-9-15.59-5.5703-3.2148-12.434-3.2148-18 0-5.5703 3.2148-9 9.1602-9 15.59v72.719c-0.12891 4.8555 1.707 9.5586 5.0977 13.039 3.3906 3.4805 8.043 5.4414 12.902 5.4414z"/>
 <path d="m266.76 236.76c1.5781 2.7344 3.8516 5.0078 6.5898 6.5898 2.7422 1.5781 5.8477 2.4102 9.0078 2.4102 3.1602 0.011719 6.2656-0.81641 9-2.4023 4.1172-2.4062 7.1172-6.3398 8.3516-10.945 1.2344-4.6055 0.60547-9.5117-1.75-13.652l-36.359-62.762c-3.2188-5.5742-9.1602-9.0078-15.598-9.0117-6.4336 0-12.379 3.4297-15.598 9-3.2188 5.5742-3.2227 12.438-0.007812 18.012z"/>
 <path d="m127.68 289.8 62.879 36c4.1367 2.7891 9.2422 3.7344 14.102 2.6172 4.8633-1.1211 9.0391-4.207 11.539-8.5195 2.5-4.3164 3.0977-9.4766 1.6484-14.25-1.4492-4.7734-4.8125-8.7305-9.2891-10.93l-62.879-36c-5.5742-3.2148-12.438-3.2109-18.008 0.007812-5.5742 3.2188-9.0039 9.1641-9 15.598 0 6.4375 3.4336 12.379 9.0078 15.598z"/>
 <path d="m187.32 423.48c0-4.7734-1.8984-9.3516-5.2734-12.727-3.375-3.3789-7.9531-5.2734-12.727-5.2734h-72c-6.4297 0-12.375 3.4297-15.59 9-3.2148 5.5703-3.2148 12.43 0 18 3.2148 5.5703 9.1602 9 15.59 9h72c4.7734 0 9.3516-1.8984 12.727-5.2734s5.2734-7.9531 5.2734-12.727z"/>
 <path d="m190.56 520.92-62.879 36c-4.6172 2.6562-7.8164 7.2188-8.7461 12.465-0.92578 5.2422 0.51562 10.629 3.9414 14.707s8.4805 6.4336 13.805 6.4258c3.1719-0.015625 6.2812-0.88672 9-2.5195l62.879-36c5.5742-3.2148 9.0078-9.1602 9.0117-15.594 0-6.4336-3.4297-12.383-9-15.602-5.5703-3.2188-12.438-3.2188-18.012-0.003907z"/>
 <path d="m266.76 610.2-36 62.879c-2.2031 4.082-2.75 8.8555-1.5195 13.328 1.2305 4.4688 4.1367 8.293 8.1172 10.672 2.7188 1.6367 5.8281 2.5078 9 2.5234 3.1758 0 6.2969-0.84375 9.0391-2.4453 2.7383-1.6016 5.0039-3.9062 6.5625-6.6758l36-62.879c3.2148-5.5742 3.2109-12.441-0.007813-18.012-3.2188-5.5703-9.1641-9-15.598-9-6.4375 0.003906-12.379 3.4375-15.594 9.0117z"/>
 <path d="m377.28 649.44v72.719c0 6.4297 3.4297 12.371 9 15.59 5.5664 3.2148 12.43 3.2148 18 0 5.5664-3.2188 9-9.1602 9-15.59v-72.719c0-6.4336-3.4336-12.375-9-15.59-5.5703-3.2148-12.434-3.2148-18 0-5.5703 3.2148-9 9.1562-9 15.59z"/>
 <path d="m603.24 423.48c0 4.7734 1.8984 9.3516 5.2734 12.727s7.9531 5.2734 12.727 5.2734h72.723c6.4297 0 12.371-3.4297 15.586-9 3.2188-5.5703 3.2188-12.43 0-18-3.2148-5.5703-9.1562-9-15.586-9h-72.723c-4.7734 0-9.3516 1.8945-12.727 5.2734-3.375 3.375-5.2734 7.9531-5.2734 12.727z"/>
 <path d="m591 328.56c3.1758 0.003906 6.2891-0.86719 9-2.5195l63-36c3.9609-2.3984 6.8398-6.2305 8.0469-10.699 1.207-4.4727 0.64844-9.2344-1.5664-13.301-2.3359-4.0234-6.1641-6.9727-10.652-8.207s-9.2812-0.65625-13.348 1.6094l-63 36c-4.6172 2.6562-7.8164 7.2188-8.7461 12.465-0.92578 5.2422 0.51562 10.629 3.9414 14.707 3.4219 4.0781 8.4805 6.4336 13.805 6.4258z"/>
 <path d="m499.32 243.36c2.7227 1.6133 5.8359 2.4453 9 2.4023 3.1602 0 6.2695-0.83203 9.0078-2.4102 2.7383-1.582 5.0117-3.8555 6.5938-6.5898l36-62.879v-0.003906c3.2148-4.0977 4.4961-9.3906 3.5117-14.512-0.98438-5.1172-4.1367-9.5586-8.6445-12.172-4.5117-2.6133-9.9297-3.1445-14.863-1.457-4.9297 1.6914-8.8867 5.4336-10.848 10.262l-36 62.879c-2.3789 4.082-3.0625 8.9375-1.8945 13.52 1.168 4.582 4.0898 8.5195 8.1367 10.961z"/>
 <path d="m1003.4 624.72h-1.4414c-8.2031-28.012-25.293-52.598-48.691-70.043-23.402-17.449-51.84-26.809-81.027-26.676-11.293 0.015625-22.535 1.4258-33.48 4.1992-26.992-36.438-69.734-57.828-115.08-57.598-38.191 0-74.816 15.168-101.82 42.176-27.008 27.004-42.18 63.633-42.18 101.82v7.4414-0.003907c-40.961 3.2031-77.297 27.508-95.895 64.141-18.598 36.637-16.77 80.312 4.8203 115.27 21.59 34.953 59.832 56.141 100.91 55.91h413.88c41.227-1.3164 78.77-24.07 99.016-60.008 20.242-35.941 20.242-79.844 0-115.78-20.246-35.941-57.789-58.695-99.016-60.012zm0 199.8h-413.4c-22.266 0.85156-43.918-7.3945-59.969-22.848-16.055-15.449-25.125-36.77-25.125-59.051s9.0703-43.602 25.125-59.055c16.051-15.449 37.703-23.699 59.969-22.848h9.9609c5.3789-0.003906 10.477-2.418 13.891-6.5742 3.4141-4.1602 4.7891-9.625 3.75-14.906-6.7852-33.527 2.7148-68.293 25.613-93.711 22.898-25.414 56.484-38.48 90.539-35.219 34.055 3.2656 64.551 22.469 82.207 51.77 2.168 3.5977 5.5273 6.3242 9.4961 7.7031 3.9648 1.3789 8.2891 1.332 12.223-0.14062 27.613-10.242 58.348-7.6562 83.863 7.0469 25.516 14.707 43.156 40.008 48.137 69.031 0.73438 4.1875 2.9141 7.9844 6.1602 10.727 3.2461 2.7383 7.3516 4.2539 11.602 4.2734h15.84c28.516 1.0938 54.41 16.938 68.359 41.828 13.953 24.895 13.953 55.25 0 80.145-13.949 24.895-39.844 40.738-68.359 41.828z"/>
 <path d="m544.68 1069.2c3.7188 0.007812 7.3477-1.1445 10.379-3.293 3.0312-2.1523 5.3203-5.1953 6.543-8.707l46.438-133.2c1.5664-4.5195 1.2695-9.4766-0.82422-13.777-2.0938-4.3008-5.8125-7.5898-10.336-9.1445-4.4844-1.6016-9.4258-1.332-13.715 0.74219-4.2852 2.0742-7.5586 5.7852-9.0859 10.301l-46.078 133.08c-1.5547 4.4414-1.3047 9.3164 0.69141 13.578 1.9961 4.2617 5.582 7.5742 9.9883 9.2227 1.9141 0.74609 3.9453 1.1523 6 1.1992z"/>
 <path d="m672 1093.2c3.7188 0.007812 7.3438-1.1445 10.379-3.293 3.0312-2.1523 5.3203-5.1953 6.543-8.707l46.078-133.2c2.1445-6.0664 0.88672-12.816-3.293-17.707-4.1836-4.8867-10.656-7.1758-16.98-6-6.3242 1.1797-11.543 5.6406-13.688 11.707l-46.438 133.2c-1.5352 4.4883-1.2383 9.4023 0.82813 13.672 2.0664 4.2695 5.7383 7.5508 10.211 9.1289 2.0273 0.78906 4.1836 1.1953 6.3594 1.1992z"/>
 <path d="m798.6 1069.2c3.7148 0.007812 7.3438-1.1445 10.375-3.293 3.0352-2.1523 5.3203-5.1953 6.543-8.707l46.441-133.2c2.1445-6.0664 0.88672-12.816-3.293-17.707-4.1836-4.8867-10.656-7.1758-16.98-6-6.3281 1.1797-11.543 5.6406-13.688 11.707l-46.441 133.2c-1.5352 4.4883-1.2344 9.4023 0.83203 13.672 2.0664 4.2695 5.7344 7.5508 10.211 9.1289 1.9141 0.74609 3.9453 1.1523 6 1.1992z"/>
 <path d="m925.56 1093.2c3.7305-0.003907 7.3711-1.1562 10.418-3.3047 3.0508-2.1484 5.3633-5.1836 6.625-8.6953l46.32-133.2c2.1406-6.0664 0.88672-12.816-3.2969-17.707-4.1797-4.8867-10.652-7.1758-16.98-6-6.3242 1.1797-11.539 5.6406-13.684 11.707l-46.441 133.2c-1.5352 4.4883-1.2383 9.4023 0.83203 13.672 2.0664 4.2695 5.7344 7.5508 10.207 9.1289 1.918 0.74609 3.9453 1.1523 6 1.1992z"/>
</svg>
