<?xml version="1.0" encoding="UTF-8"?>
<svg id="CREA" xmlns="http://www.w3.org/2000/svg" version="1.1" viewBox="27.5 25.5 232 74">
  <!-- Generator: Adobe Illustrator 29.8.2, SVG Export Plug-In . SVG Version: 2.1.1 Build 3)  -->
  <defs>
    <style>
      .st0 {
        fill: #0b37e5;
      }
    </style>
  </defs>
  <path d="M67.6,26.8l-9.8,19.5h9.8v17.3h-19.5v-17.3h9.8l-9.8-19.5h-19.5v58.6h19.5v-19.5l9.8,19.5,9.8-19.5v19.5h19.5V26.8h-19.5ZM45.8,83.1c-8.4-1.2-14.9-8.5-14.9-17.2h14.9v17.2ZM45.8,63.6c-8.4-1.2-14.9-8.4-14.9-17.2s6.5-16,14.9-17.2v34.4ZM77.3,29.1c4.1,0,7.5,3.3,7.5,7.5s-3.3,7.5-7.5,7.5-7.5-3.3-7.5-7.5,3.3-7.5,7.5-7.5M69.9,83.1v-36.8c8.5,1.8,14.9,9.3,14.9,18.4s-6.4,16.6-14.9,18.4"/>
  <polygon points="105.5 29.1 110.8 41.6 111.7 41.6 117 29.1 117 41.6 118.6 41.6 118.6 27 116.2 27 111.3 38.9 106.3 27 103.9 27 103.9 41.6 105.5 41.6 105.5 29.1"/>
  <path d="M133,35.9c0,.6,0,1.2-.2,1.7-.1.5-.4,1-.7,1.5-.3.4-.7.8-1.2,1-.5.3-1.1.4-1.9.4s-1.4-.1-1.9-.4c-.5-.3-.9-.6-1.2-1-.3-.4-.5-.9-.7-1.5-.1-.5-.2-1.1-.2-1.7v-9h-1.6v9.1c0,.6,0,1.2.2,1.9.2.7.5,1.3.9,1.9.4.6,1,1.1,1.7,1.4.7.4,1.6.6,2.8.6s2-.2,2.8-.6,1.3-.9,1.7-1.4c.4-.6.7-1.2.9-1.9.2-.7.2-1.3.2-1.9v-9.1h-1.6v9Z"/>
  <path d="M146.6,34.7c-.4-.3-.9-.6-1.4-.8-.5-.2-1-.4-1.6-.5-.4-.1-.8-.3-1.2-.4-.4-.1-.7-.3-1-.5-.3-.2-.5-.5-.7-.8-.2-.3-.3-.7-.3-1.1s0-.9.3-1.2c.2-.3.4-.6.7-.8.3-.2.6-.4,1-.5.4-.1.7-.2,1.1-.2.7,0,1.3.1,1.8.4.5.3.9.6,1.2,1h0s1.3-1,1.3-1h0c-.4-.5-.9-.9-1.6-1.3-.7-.3-1.6-.5-2.6-.5s-1.1,0-1.7.2c-.6.2-1.1.4-1.5.7-.5.3-.8.8-1.1,1.3-.3.5-.4,1.1-.4,1.8s.1,1.2.4,1.7c.2.5.5.8.9,1.2.4.3.8.6,1.3.8.5.2,1,.4,1.4.5.5.2.9.3,1.4.4.4.1.8.3,1.1.6.3.2.6.5.8.8.2.3.3.7.3,1.2s0,.9-.3,1.2c-.2.3-.5.6-.8.9-.3.2-.7.4-1,.5-.4.1-.8.2-1.1.2-.8,0-1.4-.2-2-.5-.6-.3-1-.8-1.3-1.3h0s-1.4,1-1.4,1h0c.3.4.6.7.9,1,.4.3.7.5,1.1.7.4.2.8.3,1.3.4.4,0,.9.1,1.3.1s1.2,0,1.8-.2c.6-.2,1.1-.4,1.6-.8.5-.3.8-.8,1.1-1.3.3-.5.4-1.2.4-1.9s-.1-1.3-.4-1.8c-.3-.5-.6-.9-1-1.2"/>
  <polygon points="161.8 40.1 153.8 40.1 153.8 34.7 161 34.7 161 33.3 153.8 33.3 153.8 28.4 161.5 28.4 161.5 27 152.2 27 152.2 41.6 161.8 41.6 161.8 40.1"/>
  <path d="M179.1,34.7c-.4-.3-.9-.6-1.4-.8-.5-.2-1-.4-1.6-.5-.4-.1-.8-.3-1.2-.4-.4-.1-.7-.3-1-.5-.3-.2-.5-.5-.7-.8-.2-.3-.3-.7-.3-1.1s0-.9.3-1.2c.2-.3.4-.6.7-.8.3-.2.6-.4,1-.5.4-.1.7-.2,1.1-.2.7,0,1.3.1,1.8.4.5.3.9.6,1.2,1h0s1.3-1,1.3-1h0c-.4-.5-.9-.9-1.6-1.3-.7-.3-1.6-.5-2.6-.5s-1.1,0-1.7.2c-.6.2-1.1.4-1.5.7-.5.3-.8.8-1.1,1.3-.3.5-.4,1.1-.4,1.8s.1,1.2.4,1.7c.2.5.5.8.9,1.2.4.3.8.6,1.3.8.5.2,1,.4,1.4.5.5.2.9.3,1.4.4.4.1.8.3,1.1.6.3.2.6.5.8.8.2.3.3.7.3,1.2s0,.9-.3,1.2c-.2.3-.5.6-.8.9-.3.2-.7.4-1,.5-.4.1-.8.2-1.1.2-.8,0-1.4-.2-2-.5-.6-.3-1-.8-1.3-1.3h0s-1.4,1-1.4,1h0c.3.4.6.7.9,1,.4.3.7.5,1.1.7.4.2.8.3,1.3.4.4,0,.9.1,1.3.1s1.2,0,1.8-.2c.6-.2,1.1-.4,1.6-.8.5-.3.8-.8,1.1-1.3.3-.5.4-1.2.4-1.9s-.1-1.3-.4-1.8c-.3-.5-.6-.9-1-1.2"/>
  <path d="M198.1,37.6c.6-1.1.9-2.2.9-3.5s-.2-2.1-.6-3c-.4-.9-.9-1.7-1.6-2.4-.7-.7-1.5-1.2-2.4-1.6-.9-.4-1.9-.6-3-.6s-2.1.2-3,.6c-.9.4-1.7.9-2.4,1.6-.7.7-1.2,1.5-1.6,2.4-.4.9-.6,1.9-.6,3s.2,2.1.6,3c.4.9.9,1.7,1.6,2.4.7.7,1.5,1.2,2.4,1.6.9.4,1.9.6,3,.6h8.5v-1.4h-4.4c1.1-.6,2-1.5,2.5-2.5M191.5,28c.9,0,1.7.2,2.4.5.7.3,1.3.8,1.8,1.3.5.6.9,1.2,1.2,1.9.3.7.4,1.5.4,2.3s-.1,1.6-.4,2.3c-.3.7-.7,1.4-1.2,1.9-.5.6-1.1,1-1.8,1.3-.7.3-1.5.5-2.4.5s-1.7-.2-2.5-.5c-.7-.3-1.3-.8-1.8-1.3-.5-.6-.9-1.2-1.2-1.9-.3-.7-.4-1.5-.4-2.3s.1-1.6.4-2.3c.3-.7.7-1.4,1.2-1.9.5-.6,1.1-1,1.8-1.3.7-.3,1.6-.5,2.5-.5"/>
  <path d="M212.9,35.9c0,.6,0,1.2-.2,1.7-.1.5-.4,1-.7,1.5-.3.4-.7.8-1.2,1-.5.3-1.1.4-1.9.4s-1.4-.1-1.9-.4c-.5-.3-.9-.6-1.2-1-.3-.4-.5-.9-.7-1.5-.1-.5-.2-1.1-.2-1.7v-9h-1.6v9.1c0,.6,0,1.2.2,1.9.2.7.5,1.3.9,1.9.4.6,1,1.1,1.7,1.4.7.4,1.6.6,2.8.6s2-.2,2.8-.6,1.3-.9,1.7-1.4c.4-.6.7-1.2.9-1.9.2-.7.2-1.3.2-1.9v-9.1h-1.6v9Z"/>
  <path d="M223.7,27l-6.4,14.6h1.8l1.6-3.8h7.6l1.6,3.8h1.8l-6.4-14.6h-1.5ZM227.6,36.3h-6.4l3.2-7.5,3.2,7.5Z"/>
  <path d="M242,34.3c.5-.2.9-.5,1.2-.8.3-.3.6-.7.8-1.2.2-.4.3-.9.3-1.5s-.1-1.3-.4-1.8c-.3-.5-.6-.9-1.1-1.2-.5-.3-1-.5-1.6-.7-.6-.1-1.3-.2-2-.2h-4.4v14.6h1.6v-6.8h2.4l4.1,6.8h2l-4.3-6.9c.5,0,1-.2,1.4-.4M236.4,28.3h2.6c.6,0,1.1,0,1.5.1.5,0,.8.2,1.2.4.3.2.6.5.7.8.2.3.3.7.3,1.2,0,.8-.3,1.5-1,1.9-.6.4-1.6.6-2.8.6h-2.6v-5.1Z"/>
  <polygon points="250 40.1 250 34.7 257.1 34.7 257.1 33.3 250 33.3 250 28.4 257.6 28.4 257.6 27 248.4 27 248.4 41.6 257.9 41.6 257.9 40.1 250 40.1"/>
  <path class="st0" d="M77.3,29.1c4.1,0,7.5,3.3,7.5,7.5s-3.3,7.5-7.5,7.5-7.5-3.3-7.5-7.5,3.3-7.5,7.5-7.5"/>
  <g>
    <path d="M113.9,66.5c0,.4-.3,1.1-.5,1.6-2.2,5.3-3.6,9.1-5.2,12.9,0,.2,0,.8.5.8s3.1-1.9,4.2-3.2c.5-.5.8-.9,1-.9s.2,0,.2.3c0,.4-.3,1.1-.8,1.7-2.1,2.5-5.9,5.6-7.8,5.6s-1.4-.7-1.4-1.2,0-.4.2-.9c1.6-4.2,3.5-8.8,5.7-14,.2-.4-.1-.8-.4-.7-1,.3-2.1,1-3.4,2.1-.2.2-.6.1-.6-.1s.3-.8.6-1.2c.9-1.1,4.8-4,6.4-4s1,.7,1,1.1ZM115.6,57.8c0,1.3-1.1,2.6-2.1,2.6s-.5,0-.7-.1c-.5-.3-1-1-1-1.8s.5-1.6.9-2c.5-.4.9-.6,1.2-.6,1,0,1.6,1,1.6,1.9Z"/>
    <path d="M136.3,68.1c0,.8-.1,1.5-.6,2.8-1,2.8-3.7,8.7-4.1,9.5-.4.9-.4,1.3.1,1.3.9,0,2.7-1.5,4.1-2.9.4-.3.9-.4.9,0,0,.5-.3,1-.5,1.4-1.6,2.5-5.9,5.2-7.5,5.2s-1-.2-1.5-.8c-.1-.1-.5-.6,0-1.6.4-.8,5.8-12.4,6.3-13.9.5-1.5,0-2.1-.6-2.1-1.1,0-2.8,1.1-5.2,4.1-1.9,2.3-6.2,9.4-7.6,11.4-1.2,2-1.8,2.9-2.3,2.9s-1.3-.9-1.3-1.3c0-.7,1.2-3.5,1.4-3.9,1.3-3,3.5-7.6,4.8-11.2.3-.6,0-.8-.4-.8-1.4,0-2.4,1.1-3.5,2.1-.2.2-.4.5-.6.5s-.3-.3-.3-.5c0-1.3,2.1-4.9,5.9-4.9s1.4.4,1.7,1c.1.2.1.7,0,1.2-.3.8-2.4,5.9-2.8,6.9-.2.4.4.4.5,0,.9-1.4,4.1-5.4,5.7-6.7,2-1.8,3.7-2.4,4.7-2.4,1.7,0,2.6,1.4,2.6,2.7Z"/>
    <path d="M150.8,66.3c.2.2.5.6.5,1s-.9,1.7-1.2,1.9c-.2,0-.5,0-.7-.1-1.1-.7-1.7-1.6-2.9-1.6s-1.8.8-1.8,2.2,1,3,2.1,4.6c1.1,1.9,1.8,3.2,1.8,4.2,0,1.6-1,3.1-2.5,4.4-1.8,1.7-4.3,2.3-5.3,2.3s-2.9-1-2.9-2.5.5-1.4.9-1.9c0,0,.5-.2.7,0,.9,1,2.5,2.1,4,2.1s2.4-1.1,2.4-2.6-.7-2.2-2-4.2c-1.2-1.9-1.7-3.3-1.7-4.3,0-1.9,1.2-3.4,2.5-4.6,1.5-1.3,3-1.9,4-1.9s1.8.5,2.1.9Z"/>
    <path d="M161.7,66.5c0,.4-.3,1.1-.5,1.6-2.2,5.3-3.6,9.1-5.2,12.9,0,.2,0,.8.5.8s3.1-1.9,4.2-3.2c.5-.5.8-.9,1-.9s.2,0,.2.3c0,.4-.3,1.1-.8,1.7-2.1,2.5-5.9,5.6-7.8,5.6s-1.4-.7-1.4-1.2,0-.4.2-.9c1.6-4.2,3.5-8.8,5.7-14,.2-.4-.1-.8-.4-.7-1,.3-2.1,1-3.4,2.1-.2.2-.6.1-.6-.1s.3-.8.6-1.2c.9-1.1,4.8-4,6.4-4s1,.7,1,1.1ZM163.5,57.8c0,1.3-1.1,2.6-2.1,2.6s-.5,0-.7-.1c-.5-.3-1-1-1-1.8s.5-1.6.9-2c.5-.4.9-.6,1.2-.6,1,0,1.6,1,1.6,1.9Z"/>
    <path d="M178.2,66c.5.3.5.2,1.3.1.7,0,2.1-.7,3.2-.7s1,.4,1,1.3-.4,1.4-1,1.4c-1.2,0-1.9-.5-3.1-.5s-.5.4-.5.6c.2.7.2,1.1.2,1.5,0,4.4-4.1,9.2-6.8,10.3-.8.4-2.4.6-3.1.8,0,0-.2,0-.3.2-.1.3-.2.9-.2,1.2,0,1,1,1.9,1.2,2.1,1.2.9,4.2,2.7,5.4,3.5,1.6,1.2,2.6,2.8,2.6,4.1s-1,2.5-2.3,3.3c-2.6,1.6-5.7,2.6-8.6,2.6s-4.2-.7-5.6-1.5c-1.6-1-2.5-2.5-2.5-3.6,0-1.6,1.6-2.7,2.9-3.6,1.5-1,3.6-1.9,4.9-2.7.2,0,.3-.3.2-.3-.3-.4-1.1-1.6-1.1-1.9s0-.7.5-1.4c.5-.8,1.1-1.3,1.5-1.7,0,0,.2-.4,0-.5-1.7-.8-2.7-1.7-2.7-3.5,0-5.6,4.4-9.2,5.5-10,1.5-1,3.2-1.8,5-1.8s1.9.4,2.4.7ZM175,92.8c0-.5,0-1.2-1.1-2-1-.9-3.9-2.8-5.1-3.4-.3-.1-1-.1-1.2,0-1.1.4-5.2,2.7-5.2,5.3s.4,1.3,1.1,1.8c1.6,1.1,4,1.7,6,1.7s5.5-1,5.5-3.3ZM173,67.7c-2.6,2.5-5,7.4-5,9.8s.9,2.1,1.7,2.1,1.2-.6,2.1-1.3c1.4-1.3,5-6.6,5-9.6s-.9-2.1-1.5-2.1-1.6.6-2.2,1.2Z"/>
    <path d="M197,81.8c-1,1.2-2.1,1.9-3,2.6-1,.7-1.7,1.1-2.3,1.1s-1.4-.3-1.7-.6c-.4-.4-.4-.7-.4-.9s.8-1.5,1.1-1.7c.1,0,.1-.1.3,0,.7.3,1.5.9,2.5.9s.6-.1.9-.7c1.4-2,4-10.4,4-13.2s-.5-1.9-1.3-1.9c-1.6,0-3.5,2.1-7,6.9-1.3,1.9-4.7,7.9-5.8,10.1-.3.6-1.1,1-1.3,1-.7,0-1.3-.9-1.2-1.5,3.1-10.1,6.2-20.7,8.5-28.4.4-1.1.4-1.8-1.2-2.2-.7-.2-1-.6-1-.8s.4-.4.8-.6c1.4-.4,4.9-1.4,5.6-1.4s.4.6.3,1c-2.2,7.4-6.9,21.8-7.2,22.6-.1.5.2.5.4.3,1.9-2.6,4.5-5.6,6.4-7.1,2.1-1.6,3.1-1.9,4.5-1.9,2.2,0,2.9,2.2,2.9,3.1,0,4.8-3.1,11.2-4.8,13.3Z"/>
    <path d="M215,61.7c-.1.6-1,3.4-1.1,3.9,0,.1,0,.4.2.4,1,0,3.1,0,4.2.1,0,0,.2.2.2.4,0,.3-.4,1-.9,1-.7,0-3.4.2-4.2.2s-.3.1-.4.4c-.6,1.5-3.1,8.1-4.4,12-.3.8-.2,1.3.2,1.3.9,0,3.6-1.9,4.6-3,.4-.4,1-.7,1-.1s-.1.7-.4,1.1c-1.8,2.7-6.4,5.9-8.5,5.9s-1.2-.7-1.2-1.1,0-.6.2-1.2c.2-.5,3.3-9.4,5.3-14.7.1-.3,0-.6,0-.6-.6,0-1.8,0-2.4-.1-.5,0-.7-.2-.7-.4,0-.3.6-1,.9-1,.9,0,2.5-.1,2.8-.1s.5-.3.5-.5c.7-1.4,1.4-2.7,1.9-3.6.6-1,1.2-1.4,2.1-1.4s.5.2.2,1Z"/>
  </g>
</svg>